<?xml version="1.0" encoding="UTF-8" standalone="no"?>
<!-- Created with Inkscape (http://www.inkscape.org/) -->

<svg
   width="48"
   height="48"
   viewBox="0 0 12.7 12.7"
   version="1.1"
   id="svg5"
   inkscape:version="1.1 (c68e22c387, 2021-05-23)"
   sodipodi:docname="shuffle.svg"
   xmlns:inkscape="http://www.inkscape.org/namespaces/inkscape"
   xmlns:sodipodi="http://sodipodi.sourceforge.net/DTD/sodipodi-0.dtd"
   xmlns="http://www.w3.org/2000/svg"
   xmlns:svg="http://www.w3.org/2000/svg">
  <sodipodi:namedview
     id="namedview7"
     pagecolor="#ffffff"
     bordercolor="#666666"
     borderopacity="1.0"
     inkscape:pageshadow="2"
     inkscape:pageopacity="0.0"
     inkscape:pagecheckerboard="0"
     inkscape:document-units="mm"
     showgrid="false"
     units="px"
     inkscape:zoom="3.9910213"
     inkscape:cx="2.1297807"
     inkscape:cy="11.901715"
     inkscape:window-width="1366"
     inkscape:window-height="745"
     inkscape:window-x="-8"
     inkscape:window-y="-8"
     inkscape:window-maximized="1"
     inkscape:current-layer="layer1" />
  <defs
     id="defs2" />
  <g
     inkscape:label="Layer 1"
     inkscape:groupmode="layer"
     id="layer1">
    <path
       d="M 9.6166872,1.3957346 C 9.8786361,1.2865904 10.177695,1.3477074 10.378523,1.5463555 l 1.397061,1.3970618 c 0.130974,0.1309743 0.205194,0.3077901 0.205194,0.4933375 0,0.1855468 -0.07422,0.3623629 -0.205194,0.4933374 L 10.378523,5.3271533 C 10.177695,5.527981 9.8786361,5.58692 9.6166872,5.477774 9.3547381,5.3686287 9.1844708,5.1154116 9.1844708,4.8316329 V 4.1374679 H 8.4859399 c -0.2204738,0 -0.4278497,0.1025981 -0.5588246,0.2794126 L 7.0015621,5.6502242 6.1283986,4.4867337 6.8094659,3.5786433 C 7.2045728,3.0503796 7.8267016,2.7404065 8.4859399,2.7404065 h 0.6985309 v -0.698531 c 0,-0.281595 0.1702673,-0.5369954 0.4322164,-0.6461409 z m -5.2346159,5.4201629 0.8731638,1.1634903 -0.681068,0.90809 C 4.1790609,9.4157417 3.5569318,9.7257152 2.897693,9.7257152 H 1.5006316 c -0.386375,0 -0.69853099,-0.3121565 -0.69853099,-0.6985311 0,-0.386375 0.31215599,-0.6985309 0.69853099,-0.6985309 H 2.897693 c 0.2204743,0 0.4278502,-0.1025956 0.5588247,-0.2794121 z M 10.376339,10.919765 C 10.175511,11.120594 9.8764531,11.179532 9.6145042,11.070386 9.3525546,10.961241 9.182288,10.708024 9.182288,10.424246 V 9.7257152 H 8.4859399 c -0.6592383,0 -1.2813671,-0.3099735 -1.676474,-0.8382374 L 3.4565177,4.4168805 C 3.3255432,4.2400648 3.1181673,4.1374679 2.897693,4.1374679 H 1.5006316 c -0.386375,0 -0.69853099,-0.312156 -0.69853099,-0.6985305 0,-0.3863749 0.31215599,-0.6985309 0.69853099,-0.6985309 H 2.897693 c 0.6592388,0 1.2813679,0.3099731 1.6764741,0.8382368 L 7.9271153,8.0492411 C 8.0580896,8.2260567 8.2654661,8.3286532 8.4859399,8.3286532 H 9.1844708 V 7.6301223 c 0,-0.2815951 0.1702673,-0.5369958 0.4322164,-0.6461411 C 9.8786361,6.874837 10.177695,6.935954 10.378523,7.1346021 l 1.397061,1.3970616 c 0.130974,0.1309744 0.205194,0.3077901 0.205194,0.4933374 0,0.1855474 -0.07422,0.3623625 -0.205194,0.493337 l -1.397061,1.3970629 z"
       id="path856"
       style="stroke-width:0.0218291" />
  </g>
</svg>
